<mxfile host="app.diagrams.net" agent="Mozilla/5.0 (Windows NT 10.0; Win64; x64) AppleWebKit/537.36 (KHTML, like Gecko) Chrome/140.0.0.0 Safari/537.36" version="28.2.4">
  <diagram name="Page-1" id="6g--INr78QLO_WVkpbw8">
    <mxGraphModel dx="2680" dy="1592" grid="1" gridSize="10" guides="1" tooltips="1" connect="1" arrows="1" fold="1" page="1" pageScale="1" pageWidth="827" pageHeight="1169" math="0" shadow="0">
      <root>
        <mxCell id="0" />
        <mxCell id="1" parent="0" />
        <mxCell id="WtMD0EqSSo5c7lMx8Lui-1" value="Learning management system" style="shape=rect;html=1;verticalAlign=top;fontStyle=1;whiteSpace=wrap;align=center;" vertex="1" parent="1">
          <mxGeometry x="280" y="400" width="840" height="560" as="geometry" />
        </mxCell>
        <mxCell id="WtMD0EqSSo5c7lMx8Lui-2" value="Search course" style="ellipse;whiteSpace=wrap;html=1;" vertex="1" parent="1">
          <mxGeometry x="320" y="440" width="140" height="70" as="geometry" />
        </mxCell>
        <mxCell id="WtMD0EqSSo5c7lMx8Lui-3" value="Enroll course" style="ellipse;whiteSpace=wrap;html=1;" vertex="1" parent="1">
          <mxGeometry x="320" y="520" width="140" height="70" as="geometry" />
        </mxCell>
        <mxCell id="WtMD0EqSSo5c7lMx8Lui-4" value="&lt;br&gt;extension points&lt;br&gt;Learner wants to rate course&lt;div&gt;Course has assigments&lt;/div&gt;" style="html=1;shape=mxgraph.sysml.useCaseExtPt;whiteSpace=wrap;align=center;" vertex="1" parent="1">
          <mxGeometry x="320" y="600" width="160" height="100" as="geometry" />
        </mxCell>
        <mxCell id="WtMD0EqSSo5c7lMx8Lui-5" value="Learn course" style="resizable=0;html=1;verticalAlign=middle;align=center;labelBackgroundColor=none;fontStyle=1;" connectable="0" vertex="1" parent="WtMD0EqSSo5c7lMx8Lui-4">
          <mxGeometry x="80" y="21.25" as="geometry" />
        </mxCell>
        <mxCell id="WtMD0EqSSo5c7lMx8Lui-6" value="Authentication" style="ellipse;whiteSpace=wrap;html=1;" vertex="1" parent="1">
          <mxGeometry x="720" y="600" width="140" height="70" as="geometry" />
        </mxCell>
        <mxCell id="WtMD0EqSSo5c7lMx8Lui-7" value="Message" style="ellipse;whiteSpace=wrap;html=1;" vertex="1" parent="1">
          <mxGeometry x="720" y="680" width="140" height="70" as="geometry" />
        </mxCell>
        <mxCell id="WtMD0EqSSo5c7lMx8Lui-8" value="Create course" style="ellipse;whiteSpace=wrap;html=1;" vertex="1" parent="1">
          <mxGeometry x="920" y="440" width="140" height="70" as="geometry" />
        </mxCell>
        <mxCell id="WtMD0EqSSo5c7lMx8Lui-9" value="Modify course" style="ellipse;whiteSpace=wrap;html=1;" vertex="1" parent="1">
          <mxGeometry x="920" y="520" width="140" height="70" as="geometry" />
        </mxCell>
        <mxCell id="WtMD0EqSSo5c7lMx8Lui-11" value="View report" style="ellipse;whiteSpace=wrap;html=1;" vertex="1" parent="1">
          <mxGeometry x="920" y="680" width="140" height="70" as="geometry" />
        </mxCell>
        <mxCell id="WtMD0EqSSo5c7lMx8Lui-12" value="View progress" style="ellipse;whiteSpace=wrap;html=1;" vertex="1" parent="1">
          <mxGeometry x="320" y="720" width="140" height="70" as="geometry" />
        </mxCell>
        <mxCell id="WtMD0EqSSo5c7lMx8Lui-14" value="Notify" style="ellipse;whiteSpace=wrap;html=1;" vertex="1" parent="1">
          <mxGeometry x="720" y="440" width="140" height="70" as="geometry" />
        </mxCell>
        <mxCell id="WtMD0EqSSo5c7lMx8Lui-15" value="Issue certificate" style="ellipse;whiteSpace=wrap;html=1;" vertex="1" parent="1">
          <mxGeometry x="720" y="520" width="140" height="70" as="geometry" />
        </mxCell>
        <mxCell id="WtMD0EqSSo5c7lMx8Lui-17" value="Rate course" style="ellipse;whiteSpace=wrap;html=1;" vertex="1" parent="1">
          <mxGeometry x="520" y="440" width="140" height="70" as="geometry" />
        </mxCell>
        <mxCell id="WtMD0EqSSo5c7lMx8Lui-18" value="Submit assignment" style="ellipse;whiteSpace=wrap;html=1;" vertex="1" parent="1">
          <mxGeometry x="520" y="520" width="140" height="70" as="geometry" />
        </mxCell>
        <mxCell id="WtMD0EqSSo5c7lMx8Lui-19" value="Learner" style="shape=umlActor;html=1;verticalLabelPosition=bottom;verticalAlign=top;align=center;" vertex="1" parent="1">
          <mxGeometry x="170" y="600" width="30" height="60" as="geometry" />
        </mxCell>
        <mxCell id="WtMD0EqSSo5c7lMx8Lui-20" value="" style="edgeStyle=none;html=1;endArrow=none;verticalAlign=bottom;rounded=0;" edge="1" parent="1" source="WtMD0EqSSo5c7lMx8Lui-19" target="WtMD0EqSSo5c7lMx8Lui-2">
          <mxGeometry width="160" relative="1" as="geometry">
            <mxPoint x="610" y="630" as="sourcePoint" />
            <mxPoint x="770" y="630" as="targetPoint" />
          </mxGeometry>
        </mxCell>
        <mxCell id="WtMD0EqSSo5c7lMx8Lui-21" value="" style="edgeStyle=none;html=1;endArrow=none;verticalAlign=bottom;rounded=0;" edge="1" parent="1" source="WtMD0EqSSo5c7lMx8Lui-19" target="WtMD0EqSSo5c7lMx8Lui-3">
          <mxGeometry width="160" relative="1" as="geometry">
            <mxPoint x="210" y="629" as="sourcePoint" />
            <mxPoint x="361" y="514" as="targetPoint" />
          </mxGeometry>
        </mxCell>
        <mxCell id="WtMD0EqSSo5c7lMx8Lui-22" value="" style="edgeStyle=none;html=1;endArrow=none;verticalAlign=bottom;rounded=0;" edge="1" parent="1" source="WtMD0EqSSo5c7lMx8Lui-19" target="WtMD0EqSSo5c7lMx8Lui-4">
          <mxGeometry width="160" relative="1" as="geometry">
            <mxPoint x="210" y="634" as="sourcePoint" />
            <mxPoint x="343" y="586" as="targetPoint" />
          </mxGeometry>
        </mxCell>
        <mxCell id="WtMD0EqSSo5c7lMx8Lui-23" value="" style="edgeStyle=orthogonalEdgeStyle;html=1;endArrow=none;verticalAlign=bottom;rounded=0;" edge="1" parent="1" source="WtMD0EqSSo5c7lMx8Lui-19" target="WtMD0EqSSo5c7lMx8Lui-6">
          <mxGeometry width="160" relative="1" as="geometry">
            <mxPoint x="210" y="641" as="sourcePoint" />
            <mxPoint x="330" y="653" as="targetPoint" />
            <Array as="points">
              <mxPoint x="185" y="710" />
              <mxPoint x="690" y="710" />
              <mxPoint x="690" y="635" />
            </Array>
          </mxGeometry>
        </mxCell>
        <mxCell id="WtMD0EqSSo5c7lMx8Lui-24" value="" style="edgeStyle=orthogonalEdgeStyle;html=1;endArrow=none;verticalAlign=bottom;rounded=0;" edge="1" parent="1" target="WtMD0EqSSo5c7lMx8Lui-7" source="WtMD0EqSSo5c7lMx8Lui-19">
          <mxGeometry width="160" relative="1" as="geometry">
            <mxPoint x="210" y="649" as="sourcePoint" />
            <mxPoint x="356" y="738" as="targetPoint" />
            <Array as="points">
              <mxPoint x="185" y="710" />
            </Array>
          </mxGeometry>
        </mxCell>
        <mxCell id="WtMD0EqSSo5c7lMx8Lui-25" value="Instructor" style="shape=umlActor;html=1;verticalLabelPosition=bottom;verticalAlign=top;align=center;" vertex="1" parent="1">
          <mxGeometry x="1180" y="600" width="30" height="60" as="geometry" />
        </mxCell>
        <mxCell id="WtMD0EqSSo5c7lMx8Lui-27" value="" style="edgeStyle=none;html=1;endArrow=none;verticalAlign=bottom;rounded=0;" edge="1" parent="1" source="WtMD0EqSSo5c7lMx8Lui-9" target="WtMD0EqSSo5c7lMx8Lui-25">
          <mxGeometry width="160" relative="1" as="geometry">
            <mxPoint x="449" y="950" as="sourcePoint" />
            <mxPoint x="615" y="1033" as="targetPoint" />
          </mxGeometry>
        </mxCell>
        <mxCell id="WtMD0EqSSo5c7lMx8Lui-28" value="" style="edgeStyle=none;html=1;endArrow=none;verticalAlign=bottom;rounded=0;" edge="1" parent="1" source="WtMD0EqSSo5c7lMx8Lui-10" target="WtMD0EqSSo5c7lMx8Lui-25">
          <mxGeometry width="160" relative="1" as="geometry">
            <mxPoint x="580" y="958" as="sourcePoint" />
            <mxPoint x="615" y="1015" as="targetPoint" />
          </mxGeometry>
        </mxCell>
        <mxCell id="WtMD0EqSSo5c7lMx8Lui-29" value="" style="edgeStyle=none;html=1;endArrow=none;verticalAlign=bottom;rounded=0;" edge="1" parent="1" source="WtMD0EqSSo5c7lMx8Lui-11" target="WtMD0EqSSo5c7lMx8Lui-25">
          <mxGeometry width="160" relative="1" as="geometry">
            <mxPoint x="695" y="958" as="sourcePoint" />
            <mxPoint x="645" y="1021" as="targetPoint" />
          </mxGeometry>
        </mxCell>
        <mxCell id="WtMD0EqSSo5c7lMx8Lui-36" value="&amp;lt;&amp;lt;extend&amp;gt;&amp;gt;" style="edgeStyle=none;html=1;startArrow=open;endArrow=none;startSize=12;verticalAlign=bottom;dashed=1;labelBackgroundColor=none;rounded=0;" edge="1" parent="1" source="WtMD0EqSSo5c7lMx8Lui-4" target="WtMD0EqSSo5c7lMx8Lui-17">
          <mxGeometry width="160" relative="1" as="geometry">
            <mxPoint x="540" y="790" as="sourcePoint" />
            <mxPoint x="700" y="790" as="targetPoint" />
          </mxGeometry>
        </mxCell>
        <mxCell id="WtMD0EqSSo5c7lMx8Lui-38" value="" style="html=1;endArrow=none;verticalAlign=bottom;rounded=0;edgeStyle=orthogonalEdgeStyle;" edge="1" parent="1" source="WtMD0EqSSo5c7lMx8Lui-6" target="WtMD0EqSSo5c7lMx8Lui-25">
          <mxGeometry width="160" relative="1" as="geometry">
            <mxPoint x="540" y="930" as="sourcePoint" />
            <mxPoint x="700" y="930" as="targetPoint" />
            <Array as="points">
              <mxPoint x="890" y="635" />
              <mxPoint x="890" y="760" />
              <mxPoint x="1195" y="760" />
            </Array>
          </mxGeometry>
        </mxCell>
        <mxCell id="WtMD0EqSSo5c7lMx8Lui-39" value="" style="html=1;endArrow=none;verticalAlign=bottom;rounded=0;edgeStyle=orthogonalEdgeStyle;" edge="1" parent="1" source="WtMD0EqSSo5c7lMx8Lui-7" target="WtMD0EqSSo5c7lMx8Lui-25">
          <mxGeometry width="160" relative="1" as="geometry">
            <mxPoint x="427" y="797" as="sourcePoint" />
            <mxPoint x="615" y="1022" as="targetPoint" />
            <Array as="points">
              <mxPoint x="890" y="715" />
              <mxPoint x="890" y="760" />
              <mxPoint x="1195" y="760" />
            </Array>
          </mxGeometry>
        </mxCell>
        <mxCell id="WtMD0EqSSo5c7lMx8Lui-40" value="" style="html=1;endArrow=none;verticalAlign=bottom;rounded=0;" edge="1" parent="1" source="WtMD0EqSSo5c7lMx8Lui-8" target="WtMD0EqSSo5c7lMx8Lui-25">
          <mxGeometry width="160" relative="1" as="geometry">
            <mxPoint x="850" y="510" as="sourcePoint" />
            <mxPoint x="605" y="1030" as="targetPoint" />
          </mxGeometry>
        </mxCell>
        <mxCell id="WtMD0EqSSo5c7lMx8Lui-10" value="Grade assignment" style="ellipse;whiteSpace=wrap;html=1;" vertex="1" parent="1">
          <mxGeometry x="920" y="600" width="140" height="70" as="geometry" />
        </mxCell>
        <mxCell id="WtMD0EqSSo5c7lMx8Lui-41" value="" style="edgeStyle=none;html=1;endArrow=none;verticalAlign=bottom;rounded=0;" edge="1" parent="1" source="WtMD0EqSSo5c7lMx8Lui-19" target="WtMD0EqSSo5c7lMx8Lui-12">
          <mxGeometry width="160" relative="1" as="geometry">
            <mxPoint x="220" y="659" as="sourcePoint" />
            <mxPoint x="549" y="811" as="targetPoint" />
          </mxGeometry>
        </mxCell>
        <mxCell id="WtMD0EqSSo5c7lMx8Lui-42" value="Approve Instructor" style="ellipse;whiteSpace=wrap;html=1;" vertex="1" parent="1">
          <mxGeometry x="320" y="880" width="140" height="70" as="geometry" />
        </mxCell>
        <mxCell id="WtMD0EqSSo5c7lMx8Lui-43" value="Apply for Instructor" style="ellipse;whiteSpace=wrap;html=1;" vertex="1" parent="1">
          <mxGeometry x="320" y="800" width="140" height="70" as="geometry" />
        </mxCell>
        <mxCell id="WtMD0EqSSo5c7lMx8Lui-44" value="&amp;lt;&amp;lt;extend&amp;gt;&amp;gt;" style="edgeStyle=none;html=1;startArrow=open;endArrow=none;startSize=12;verticalAlign=bottom;dashed=1;labelBackgroundColor=none;rounded=0;" edge="1" parent="1" source="WtMD0EqSSo5c7lMx8Lui-4" target="WtMD0EqSSo5c7lMx8Lui-18">
          <mxGeometry width="160" relative="1" as="geometry">
            <mxPoint x="490" y="614" as="sourcePoint" />
            <mxPoint x="548" y="588" as="targetPoint" />
          </mxGeometry>
        </mxCell>
        <mxCell id="WtMD0EqSSo5c7lMx8Lui-45" value="" style="edgeStyle=none;html=1;endArrow=none;verticalAlign=bottom;rounded=0;" edge="1" parent="1" source="WtMD0EqSSo5c7lMx8Lui-19" target="WtMD0EqSSo5c7lMx8Lui-43">
          <mxGeometry width="160" relative="1" as="geometry">
            <mxPoint x="210" y="649" as="sourcePoint" />
            <mxPoint x="356" y="738" as="targetPoint" />
          </mxGeometry>
        </mxCell>
        <mxCell id="WtMD0EqSSo5c7lMx8Lui-49" value="Admin" style="shape=umlActor;html=1;verticalLabelPosition=bottom;verticalAlign=top;align=center;" vertex="1" parent="1">
          <mxGeometry x="360" y="1000" width="30" height="60" as="geometry" />
        </mxCell>
        <mxCell id="WtMD0EqSSo5c7lMx8Lui-52" value="" style="edgeStyle=none;html=1;endArrow=none;verticalAlign=bottom;rounded=0;" edge="1" parent="1" source="WtMD0EqSSo5c7lMx8Lui-42" target="WtMD0EqSSo5c7lMx8Lui-49">
          <mxGeometry width="160" relative="1" as="geometry">
            <mxPoint x="420" y="900" as="sourcePoint" />
            <mxPoint x="370" y="1070" as="targetPoint" />
          </mxGeometry>
        </mxCell>
        <mxCell id="WtMD0EqSSo5c7lMx8Lui-53" value="" style="edgeStyle=orthogonalEdgeStyle;html=1;endArrow=block;endFill=0;endSize=12;verticalAlign=bottom;rounded=0;" edge="1" parent="1" source="WtMD0EqSSo5c7lMx8Lui-25" target="WtMD0EqSSo5c7lMx8Lui-19">
          <mxGeometry width="160" relative="1" as="geometry">
            <mxPoint x="320" y="960" as="sourcePoint" />
            <mxPoint x="480" y="960" as="targetPoint" />
            <Array as="points">
              <mxPoint x="1195" y="360" />
              <mxPoint x="185" y="360" />
            </Array>
          </mxGeometry>
        </mxCell>
        <mxCell id="WtMD0EqSSo5c7lMx8Lui-54" value="Learning management system" style="shape=rect;html=1;verticalAlign=top;fontStyle=1;whiteSpace=wrap;align=center;" vertex="1" parent="1">
          <mxGeometry x="1330" y="830" width="840" height="560" as="geometry" />
        </mxCell>
        <mxCell id="WtMD0EqSSo5c7lMx8Lui-55" value="Search course" style="ellipse;whiteSpace=wrap;html=1;" vertex="1" parent="1">
          <mxGeometry x="1370" y="870" width="140" height="70" as="geometry" />
        </mxCell>
        <mxCell id="WtMD0EqSSo5c7lMx8Lui-56" value="Enroll course" style="ellipse;whiteSpace=wrap;html=1;" vertex="1" parent="1">
          <mxGeometry x="1370" y="950" width="140" height="70" as="geometry" />
        </mxCell>
        <mxCell id="WtMD0EqSSo5c7lMx8Lui-57" value="&lt;br&gt;extension points&lt;br&gt;Learner wants to rate course&lt;div&gt;Course has assigments&lt;/div&gt;" style="html=1;shape=mxgraph.sysml.useCaseExtPt;whiteSpace=wrap;align=center;" vertex="1" parent="1">
          <mxGeometry x="1370" y="1030" width="160" height="100" as="geometry" />
        </mxCell>
        <mxCell id="WtMD0EqSSo5c7lMx8Lui-58" value="Learn course" style="resizable=0;html=1;verticalAlign=middle;align=center;labelBackgroundColor=none;fontStyle=1;" connectable="0" vertex="1" parent="WtMD0EqSSo5c7lMx8Lui-57">
          <mxGeometry x="80" y="21.25" as="geometry" />
        </mxCell>
        <mxCell id="WtMD0EqSSo5c7lMx8Lui-59" value="Authentication" style="ellipse;whiteSpace=wrap;html=1;" vertex="1" parent="1">
          <mxGeometry x="1770" y="1030" width="140" height="70" as="geometry" />
        </mxCell>
        <mxCell id="WtMD0EqSSo5c7lMx8Lui-60" value="Message" style="ellipse;whiteSpace=wrap;html=1;" vertex="1" parent="1">
          <mxGeometry x="1770" y="1110" width="140" height="70" as="geometry" />
        </mxCell>
        <mxCell id="WtMD0EqSSo5c7lMx8Lui-61" value="Create course" style="ellipse;whiteSpace=wrap;html=1;" vertex="1" parent="1">
          <mxGeometry x="1970" y="870" width="140" height="70" as="geometry" />
        </mxCell>
        <mxCell id="WtMD0EqSSo5c7lMx8Lui-62" value="Modify course" style="ellipse;whiteSpace=wrap;html=1;" vertex="1" parent="1">
          <mxGeometry x="1970" y="950" width="140" height="70" as="geometry" />
        </mxCell>
        <mxCell id="WtMD0EqSSo5c7lMx8Lui-63" value="View report" style="ellipse;whiteSpace=wrap;html=1;" vertex="1" parent="1">
          <mxGeometry x="1970" y="1110" width="140" height="70" as="geometry" />
        </mxCell>
        <mxCell id="WtMD0EqSSo5c7lMx8Lui-64" value="View progress" style="ellipse;whiteSpace=wrap;html=1;" vertex="1" parent="1">
          <mxGeometry x="1370" y="1150" width="140" height="70" as="geometry" />
        </mxCell>
        <mxCell id="WtMD0EqSSo5c7lMx8Lui-65" value="Notify" style="ellipse;whiteSpace=wrap;html=1;" vertex="1" parent="1">
          <mxGeometry x="1770" y="870" width="140" height="70" as="geometry" />
        </mxCell>
        <mxCell id="WtMD0EqSSo5c7lMx8Lui-66" value="Issue certificate" style="ellipse;whiteSpace=wrap;html=1;" vertex="1" parent="1">
          <mxGeometry x="1770" y="950" width="140" height="70" as="geometry" />
        </mxCell>
        <mxCell id="WtMD0EqSSo5c7lMx8Lui-67" value="Rate course" style="ellipse;whiteSpace=wrap;html=1;" vertex="1" parent="1">
          <mxGeometry x="1570" y="870" width="140" height="70" as="geometry" />
        </mxCell>
        <mxCell id="WtMD0EqSSo5c7lMx8Lui-68" value="Submit assignment" style="ellipse;whiteSpace=wrap;html=1;" vertex="1" parent="1">
          <mxGeometry x="1570" y="950" width="140" height="70" as="geometry" />
        </mxCell>
        <mxCell id="WtMD0EqSSo5c7lMx8Lui-69" value="Learner" style="shape=umlActor;html=1;verticalLabelPosition=bottom;verticalAlign=top;align=center;" vertex="1" parent="1">
          <mxGeometry x="1220" y="1030" width="30" height="60" as="geometry" />
        </mxCell>
        <mxCell id="WtMD0EqSSo5c7lMx8Lui-70" value="" style="edgeStyle=none;html=1;endArrow=none;verticalAlign=bottom;rounded=0;" edge="1" parent="1" source="WtMD0EqSSo5c7lMx8Lui-69" target="WtMD0EqSSo5c7lMx8Lui-55">
          <mxGeometry width="160" relative="1" as="geometry">
            <mxPoint x="1660" y="1060" as="sourcePoint" />
            <mxPoint x="1820" y="1060" as="targetPoint" />
          </mxGeometry>
        </mxCell>
        <mxCell id="WtMD0EqSSo5c7lMx8Lui-71" value="" style="edgeStyle=none;html=1;endArrow=none;verticalAlign=bottom;rounded=0;" edge="1" parent="1" source="WtMD0EqSSo5c7lMx8Lui-69" target="WtMD0EqSSo5c7lMx8Lui-56">
          <mxGeometry width="160" relative="1" as="geometry">
            <mxPoint x="1260" y="1059" as="sourcePoint" />
            <mxPoint x="1411" y="944" as="targetPoint" />
          </mxGeometry>
        </mxCell>
        <mxCell id="WtMD0EqSSo5c7lMx8Lui-72" value="" style="edgeStyle=none;html=1;endArrow=none;verticalAlign=bottom;rounded=0;" edge="1" parent="1" source="WtMD0EqSSo5c7lMx8Lui-69" target="WtMD0EqSSo5c7lMx8Lui-57">
          <mxGeometry width="160" relative="1" as="geometry">
            <mxPoint x="1260" y="1064" as="sourcePoint" />
            <mxPoint x="1393" y="1016" as="targetPoint" />
          </mxGeometry>
        </mxCell>
        <mxCell id="WtMD0EqSSo5c7lMx8Lui-73" value="" style="edgeStyle=orthogonalEdgeStyle;html=1;endArrow=none;verticalAlign=bottom;rounded=0;" edge="1" parent="1" source="WtMD0EqSSo5c7lMx8Lui-69" target="WtMD0EqSSo5c7lMx8Lui-59">
          <mxGeometry width="160" relative="1" as="geometry">
            <mxPoint x="1260" y="1071" as="sourcePoint" />
            <mxPoint x="1380" y="1083" as="targetPoint" />
            <Array as="points">
              <mxPoint x="1235" y="1140" />
              <mxPoint x="1740" y="1140" />
              <mxPoint x="1740" y="1065" />
            </Array>
          </mxGeometry>
        </mxCell>
        <mxCell id="WtMD0EqSSo5c7lMx8Lui-74" value="" style="edgeStyle=orthogonalEdgeStyle;html=1;endArrow=none;verticalAlign=bottom;rounded=0;" edge="1" parent="1" source="WtMD0EqSSo5c7lMx8Lui-69" target="WtMD0EqSSo5c7lMx8Lui-60">
          <mxGeometry width="160" relative="1" as="geometry">
            <mxPoint x="1260" y="1079" as="sourcePoint" />
            <mxPoint x="1406" y="1168" as="targetPoint" />
            <Array as="points">
              <mxPoint x="1235" y="1140" />
            </Array>
          </mxGeometry>
        </mxCell>
        <mxCell id="WtMD0EqSSo5c7lMx8Lui-75" value="Instructor" style="shape=umlActor;html=1;verticalLabelPosition=bottom;verticalAlign=top;align=center;" vertex="1" parent="1">
          <mxGeometry x="2230" y="1030" width="30" height="60" as="geometry" />
        </mxCell>
        <mxCell id="WtMD0EqSSo5c7lMx8Lui-76" value="" style="edgeStyle=none;html=1;endArrow=none;verticalAlign=bottom;rounded=0;" edge="1" parent="1" source="WtMD0EqSSo5c7lMx8Lui-62" target="WtMD0EqSSo5c7lMx8Lui-75">
          <mxGeometry width="160" relative="1" as="geometry">
            <mxPoint x="1499" y="1380" as="sourcePoint" />
            <mxPoint x="1665" y="1463" as="targetPoint" />
          </mxGeometry>
        </mxCell>
        <mxCell id="WtMD0EqSSo5c7lMx8Lui-77" value="" style="edgeStyle=none;html=1;endArrow=none;verticalAlign=bottom;rounded=0;" edge="1" parent="1" source="WtMD0EqSSo5c7lMx8Lui-83" target="WtMD0EqSSo5c7lMx8Lui-75">
          <mxGeometry width="160" relative="1" as="geometry">
            <mxPoint x="1630" y="1388" as="sourcePoint" />
            <mxPoint x="1665" y="1445" as="targetPoint" />
          </mxGeometry>
        </mxCell>
        <mxCell id="WtMD0EqSSo5c7lMx8Lui-78" value="" style="edgeStyle=none;html=1;endArrow=none;verticalAlign=bottom;rounded=0;" edge="1" parent="1" source="WtMD0EqSSo5c7lMx8Lui-63" target="WtMD0EqSSo5c7lMx8Lui-75">
          <mxGeometry width="160" relative="1" as="geometry">
            <mxPoint x="1745" y="1388" as="sourcePoint" />
            <mxPoint x="1695" y="1451" as="targetPoint" />
          </mxGeometry>
        </mxCell>
        <mxCell id="WtMD0EqSSo5c7lMx8Lui-79" value="&amp;lt;&amp;lt;extend&amp;gt;&amp;gt;" style="edgeStyle=none;html=1;startArrow=open;endArrow=none;startSize=12;verticalAlign=bottom;dashed=1;labelBackgroundColor=none;rounded=0;" edge="1" parent="1" source="WtMD0EqSSo5c7lMx8Lui-57" target="WtMD0EqSSo5c7lMx8Lui-67">
          <mxGeometry width="160" relative="1" as="geometry">
            <mxPoint x="1590" y="1220" as="sourcePoint" />
            <mxPoint x="1750" y="1220" as="targetPoint" />
          </mxGeometry>
        </mxCell>
        <mxCell id="WtMD0EqSSo5c7lMx8Lui-80" value="" style="html=1;endArrow=none;verticalAlign=bottom;rounded=0;edgeStyle=orthogonalEdgeStyle;" edge="1" parent="1" source="WtMD0EqSSo5c7lMx8Lui-59" target="WtMD0EqSSo5c7lMx8Lui-75">
          <mxGeometry width="160" relative="1" as="geometry">
            <mxPoint x="1590" y="1360" as="sourcePoint" />
            <mxPoint x="1750" y="1360" as="targetPoint" />
            <Array as="points">
              <mxPoint x="1940" y="1065" />
              <mxPoint x="1940" y="1190" />
              <mxPoint x="2245" y="1190" />
            </Array>
          </mxGeometry>
        </mxCell>
        <mxCell id="WtMD0EqSSo5c7lMx8Lui-81" value="" style="html=1;endArrow=none;verticalAlign=bottom;rounded=0;edgeStyle=orthogonalEdgeStyle;" edge="1" parent="1" source="WtMD0EqSSo5c7lMx8Lui-60" target="WtMD0EqSSo5c7lMx8Lui-75">
          <mxGeometry width="160" relative="1" as="geometry">
            <mxPoint x="1477" y="1227" as="sourcePoint" />
            <mxPoint x="1665" y="1452" as="targetPoint" />
            <Array as="points">
              <mxPoint x="1940" y="1145" />
              <mxPoint x="1940" y="1190" />
              <mxPoint x="2245" y="1190" />
            </Array>
          </mxGeometry>
        </mxCell>
        <mxCell id="WtMD0EqSSo5c7lMx8Lui-82" value="" style="html=1;endArrow=none;verticalAlign=bottom;rounded=0;" edge="1" parent="1" source="WtMD0EqSSo5c7lMx8Lui-61" target="WtMD0EqSSo5c7lMx8Lui-75">
          <mxGeometry width="160" relative="1" as="geometry">
            <mxPoint x="1900" y="940" as="sourcePoint" />
            <mxPoint x="1655" y="1460" as="targetPoint" />
          </mxGeometry>
        </mxCell>
        <mxCell id="WtMD0EqSSo5c7lMx8Lui-83" value="Grade assignment" style="ellipse;whiteSpace=wrap;html=1;" vertex="1" parent="1">
          <mxGeometry x="1970" y="1030" width="140" height="70" as="geometry" />
        </mxCell>
        <mxCell id="WtMD0EqSSo5c7lMx8Lui-84" value="" style="edgeStyle=none;html=1;endArrow=none;verticalAlign=bottom;rounded=0;" edge="1" parent="1" source="WtMD0EqSSo5c7lMx8Lui-69" target="WtMD0EqSSo5c7lMx8Lui-64">
          <mxGeometry width="160" relative="1" as="geometry">
            <mxPoint x="1270" y="1089" as="sourcePoint" />
            <mxPoint x="1599" y="1241" as="targetPoint" />
          </mxGeometry>
        </mxCell>
        <mxCell id="WtMD0EqSSo5c7lMx8Lui-85" value="Approve Instructor" style="ellipse;whiteSpace=wrap;html=1;" vertex="1" parent="1">
          <mxGeometry x="1370" y="1310" width="140" height="70" as="geometry" />
        </mxCell>
        <mxCell id="WtMD0EqSSo5c7lMx8Lui-86" value="Apply for Instructor" style="ellipse;whiteSpace=wrap;html=1;" vertex="1" parent="1">
          <mxGeometry x="1370" y="1230" width="140" height="70" as="geometry" />
        </mxCell>
        <mxCell id="WtMD0EqSSo5c7lMx8Lui-87" value="&amp;lt;&amp;lt;extend&amp;gt;&amp;gt;" style="edgeStyle=none;html=1;startArrow=open;endArrow=none;startSize=12;verticalAlign=bottom;dashed=1;labelBackgroundColor=none;rounded=0;" edge="1" parent="1" source="WtMD0EqSSo5c7lMx8Lui-57" target="WtMD0EqSSo5c7lMx8Lui-68">
          <mxGeometry width="160" relative="1" as="geometry">
            <mxPoint x="1540" y="1044" as="sourcePoint" />
            <mxPoint x="1598" y="1018" as="targetPoint" />
          </mxGeometry>
        </mxCell>
        <mxCell id="WtMD0EqSSo5c7lMx8Lui-88" value="" style="edgeStyle=none;html=1;endArrow=none;verticalAlign=bottom;rounded=0;" edge="1" parent="1" source="WtMD0EqSSo5c7lMx8Lui-69" target="WtMD0EqSSo5c7lMx8Lui-86">
          <mxGeometry width="160" relative="1" as="geometry">
            <mxPoint x="1260" y="1079" as="sourcePoint" />
            <mxPoint x="1406" y="1168" as="targetPoint" />
          </mxGeometry>
        </mxCell>
        <mxCell id="WtMD0EqSSo5c7lMx8Lui-89" value="Admin" style="shape=umlActor;html=1;verticalLabelPosition=bottom;verticalAlign=top;align=center;" vertex="1" parent="1">
          <mxGeometry x="1410" y="1430" width="30" height="60" as="geometry" />
        </mxCell>
        <mxCell id="WtMD0EqSSo5c7lMx8Lui-90" value="" style="edgeStyle=none;html=1;endArrow=none;verticalAlign=bottom;rounded=0;" edge="1" parent="1" source="WtMD0EqSSo5c7lMx8Lui-85" target="WtMD0EqSSo5c7lMx8Lui-89">
          <mxGeometry width="160" relative="1" as="geometry">
            <mxPoint x="1470" y="1330" as="sourcePoint" />
            <mxPoint x="1420" y="1500" as="targetPoint" />
          </mxGeometry>
        </mxCell>
        <mxCell id="WtMD0EqSSo5c7lMx8Lui-91" value="" style="edgeStyle=orthogonalEdgeStyle;html=1;endArrow=block;endFill=0;endSize=12;verticalAlign=bottom;rounded=0;" edge="1" parent="1" source="WtMD0EqSSo5c7lMx8Lui-75" target="WtMD0EqSSo5c7lMx8Lui-69">
          <mxGeometry width="160" relative="1" as="geometry">
            <mxPoint x="1370" y="1390" as="sourcePoint" />
            <mxPoint x="1530" y="1390" as="targetPoint" />
            <Array as="points">
              <mxPoint x="2245" y="790" />
              <mxPoint x="1235" y="790" />
            </Array>
          </mxGeometry>
        </mxCell>
      </root>
    </mxGraphModel>
  </diagram>
</mxfile>
